<?xml version="1.0" encoding="iso-8859-1"?>
<!-- Generator: Adobe Illustrator 19.0.0, SVG Export Plug-In . SVG Version: 6.00 Build 0)  -->
<svg version="1.1" id="Capa_1" xmlns="http://www.w3.org/2000/svg" xmlns:xlink="http://www.w3.org/1999/xlink" x="0px" y="0px"
	 viewBox="0 0 512 512" style="enable-background:new 0 0 512 512;" xml:space="preserve">
<path style="fill:#9F7953;" d="M255.938,282.655c-8.287,0-15.005-6.718-15.005-15.005V212.5c0-8.287,6.718-15.005,15.005-15.005
	c8.287,0,15.005,6.718,15.005,15.005v55.15C270.943,275.937,264.226,282.655,255.938,282.655z"/>
<path style="fill:#FF8700;" d="M385.088,382.917c0,71.184-57.909,129.083-129.083,129.083h-0.07
	c-71.154-0.04-129.023-57.919-129.023-129.083c0-71.154,57.869-129.043,129.023-129.083h0.07
	C327.179,253.834,385.088,311.744,385.088,382.917z"/>
<path style="fill:#E47500;" d="M385.088,382.917c0,71.184-57.909,129.083-129.083,129.083h-0.07V253.834h0.07
	C327.179,253.834,385.088,311.744,385.088,382.917z"/>
<path style="fill:#00EED0;" d="M327.769,20.017v187.472c0,11.034-8.973,20.017-20.007,20.017H204.248
	c-11.034,0-20.017-8.983-20.017-20.017V20.017C184.231,8.983,193.214,0,204.248,0h103.514C318.796,0,327.769,8.983,327.769,20.017z"
	/>
<g>
	<rect x="184.231" y="48.106" style="fill:#00A5FF;" width="143.538" height="30.01"/>
	<rect x="184.231" y="97.672" style="fill:#00A5FF;" width="143.538" height="30.01"/>
	<rect x="184.231" y="147.229" style="fill:#00A5FF;" width="143.538" height="30.01"/>
</g>
<path style="fill:#9F7953;" d="M280.523,378.901c4.131-1.921,7.372-5.412,9.723-10.493c2.351-5.082,3.531-10.844,3.531-17.286
	c0-20.677-12.614-31.07-37.843-31.16h-0.34c-13.354,0-23.198,3.111-29.54,9.313c-6.332,6.212-9.503,13.294-9.503,21.267
	c0,4.331,0.83,7.212,2.501,8.633c1.661,1.42,5.472,2.131,11.444,2.131c4.692,0,7.953-0.81,9.793-2.431
	c1.831-1.621,2.751-3.991,2.751-7.122s1.01-5.342,3.051-6.622c2.031-1.29,5.202-1.931,9.503-1.931h0.34
	c8.143,0.11,12.214,4.161,12.214,12.144c0,3.261-0.37,5.932-1.1,8.013c-0.73,2.081-1.811,3.541-3.221,4.381
	c-1.41,0.85-2.771,1.41-4.061,1.691c-1.07,0.23-2.341,0.37-3.831,0.4c-0.32,0.02-0.66,0.02-1,0.02
	c-5.082,0-7.623,3.421-7.623,10.253c0,6.832,2.531,10.253,7.603,10.253c0.35,0,0.69,0,1.02,0.01c4.822,0.12,8.533,1.05,11.124,2.801
	c2.781,1.881,4.171,5.502,4.171,10.854v3.241c0,5.582-1.17,9.543-3.491,11.874c-2.271,2.291-6.212,3.461-11.804,3.511h-0.34
	c-10.083,0-15.125-3.311-15.125-9.913c0-3.301-0.94-5.612-2.841-6.922c-1.891-1.31-5.532-1.961-10.924-1.961
	c-4.812,0-8.133,0.68-9.963,2.051c-1.831,1.36-2.751,3.931-2.751,7.683c0,8.323,3.421,15.775,10.273,22.387
	c6.852,6.602,17.006,9.903,30.48,9.903c0.4,0,0.8,0,1.19-0.02c12.404-0.18,22.437-3.301,30.09-9.373
	c7.903-6.262,11.854-16.005,11.854-29.22v-3.241C297.879,391.605,292.087,383.232,280.523,378.901z"/>
<path style="fill:#896746;" d="M297.879,404.019v3.241c0,13.214-3.951,22.958-11.854,29.22c-7.653,6.072-17.686,9.193-30.09,9.373
	v-23.208c5.592-0.05,9.533-1.22,11.804-3.511c2.321-2.331,3.491-6.292,3.491-11.874v-3.241c0-5.352-1.39-8.973-4.171-10.854
	c-2.591-1.751-6.302-2.681-11.124-2.801v-20.537c1.49-0.03,2.761-0.17,3.831-0.4c1.29-0.28,2.651-0.84,4.061-1.691
	c1.41-0.84,2.491-2.301,3.221-4.381c0.73-2.081,1.1-4.752,1.1-8.013c0-7.983-4.071-12.034-12.214-12.144v-23.238
	c25.228,0.09,37.843,10.483,37.843,31.16c0,6.442-1.18,12.204-3.531,17.286c-2.351,5.082-5.592,8.573-9.723,10.493
	C292.087,383.232,297.879,391.605,297.879,404.019z"/>
<g>
	<path style="fill:#00B6BE;" d="M327.769,207.489v-30.25h-71.831v50.267h51.824C318.796,227.506,327.769,218.523,327.769,207.489z"
		/>
	<rect x="255.935" y="78.116" style="fill:#00B6BE;" width="71.831" height="19.556"/>
	<rect x="255.935" y="127.682" style="fill:#00B6BE;" width="71.831" height="19.546"/>
	<path style="fill:#00B6BE;" d="M327.769,48.106V20.017C327.769,8.983,318.796,0,307.762,0h-51.824v48.106H327.769z"/>
</g>
<g>
	<rect x="255.935" y="48.106" style="fill:#006DF3;" width="71.831" height="30.01"/>
	<rect x="255.935" y="97.672" style="fill:#006DF3;" width="71.831" height="30.01"/>
	<rect x="255.935" y="147.229" style="fill:#006DF3;" width="71.831" height="30.01"/>
</g>
<g>
</g>
<g>
</g>
<g>
</g>
<g>
</g>
<g>
</g>
<g>
</g>
<g>
</g>
<g>
</g>
<g>
</g>
<g>
</g>
<g>
</g>
<g>
</g>
<g>
</g>
<g>
</g>
<g>
</g>
</svg>
