<?xml version="1.0" encoding="iso-8859-1"?>
<!-- Generator: Adobe Illustrator 19.0.0, SVG Export Plug-In . SVG Version: 6.00 Build 0)  -->
<svg version="1.1" id="Capa_1" xmlns="http://www.w3.org/2000/svg" xmlns:xlink="http://www.w3.org/1999/xlink" x="0px" y="0px"
	 viewBox="0 0 512 512" style="enable-background:new 0 0 512 512;" xml:space="preserve">
<path style="fill:#BC9A7B;" d="M255.938,282.655c-8.287,0-15.005-6.718-15.005-15.005V212.5c0-8.287,6.718-15.005,15.005-15.005
	c8.287,0,15.005,6.718,15.005,15.005v55.15C270.943,275.937,264.226,282.655,255.938,282.655z"/>
<path style="fill:#FFB64C;" d="M385.088,382.917c0,71.184-57.909,129.083-129.083,129.083h-0.07
	c-71.154-0.04-129.023-57.919-129.023-129.083c0-71.154,57.869-129.043,129.023-129.083h0.07
	C327.179,253.834,385.088,311.744,385.088,382.917z"/>
<path style="fill:#FF9800;" d="M385.088,382.917c0,71.184-57.909,129.083-129.083,129.083h-0.07V253.834h0.07
	C327.179,253.834,385.088,311.744,385.088,382.917z"/>
<path style="fill:#BC9A7B;" d="M267.429,322.117c-2.451-1.591-5.152-2.391-8.113-2.391c-1.28,0-2.411,0.16-3.381,0.47
	c-0.58,0.19-1.1,0.43-1.571,0.73l-22.557,13.665c-3.301,1.941-4.952,4.952-4.952,9.053c0,2.731,0.79,5.182,2.391,7.342
	c1.591,2.171,3.591,3.251,5.982,3.251c1.48,0,2.901-0.45,4.271-1.37l4.952-3.071v86.959c0,2.621,1.31,4.642,3.931,6.062
	c2.171,1.18,4.682,1.871,7.553,2.071c0.6,0.05,1.21,0.07,1.841,0.07c3.641,0,6.772-0.71,9.393-2.141
	c2.621-1.42,3.931-3.441,3.931-6.062V328.099C271.1,325.708,269.88,323.717,267.429,322.117z"/>
<path style="fill:#9F7953;" d="M271.1,328.099v108.656c0,2.621-1.31,4.642-3.931,6.062c-2.621,1.43-5.752,2.141-9.393,2.141
	c-0.63,0-1.24-0.02-1.841-0.07V320.196c0.97-0.31,2.101-0.47,3.381-0.47c2.961,0,5.662,0.8,8.113,2.391
	C269.88,323.717,271.1,325.708,271.1,328.099z"/>
<path style="fill:#00EED0;" d="M327.769,20.017v187.472c0,11.034-8.973,20.017-20.007,20.017H204.248
	c-11.034,0-20.017-8.983-20.017-20.017V20.017C184.231,8.983,193.214,0,204.248,0h103.514C318.796,0,327.769,8.983,327.769,20.017z"
	/>
<g>
	<rect x="184.231" y="48.106" style="fill:#00A5FF;" width="143.538" height="30.01"/>
	<rect x="184.231" y="97.672" style="fill:#00A5FF;" width="143.538" height="30.01"/>
	<rect x="184.231" y="147.229" style="fill:#00A5FF;" width="143.538" height="30.01"/>
</g>
<g>
	<rect x="257.686" y="127.682" style="fill:#00B6BE;" width="70.083" height="19.546"/>
	<rect x="257.686" y="78.116" style="fill:#00B6BE;" width="70.083" height="19.556"/>
	<path style="fill:#00B6BE;" d="M327.769,48.106V20.017C327.769,8.983,318.796,0,307.762,0h-50.077v48.106H327.769z"/>
	<path style="fill:#00B6BE;" d="M327.769,207.489v-30.25h-70.083v50.267h50.077C318.796,227.506,327.769,218.523,327.769,207.489z"
		/>
</g>
<g>
	<rect x="257.686" y="48.106" style="fill:#006DF3;" width="70.083" height="30.01"/>
	<rect x="257.686" y="97.672" style="fill:#006DF3;" width="70.083" height="30.01"/>
	<rect x="257.686" y="147.229" style="fill:#006DF3;" width="70.083" height="30.01"/>
</g>
<g>
</g>
<g>
</g>
<g>
</g>
<g>
</g>
<g>
</g>
<g>
</g>
<g>
</g>
<g>
</g>
<g>
</g>
<g>
</g>
<g>
</g>
<g>
</g>
<g>
</g>
<g>
</g>
<g>
</g>
</svg>
