<?xml version="1.0" encoding="iso-8859-1"?>
<!-- Generator: Adobe Illustrator 19.0.0, SVG Export Plug-In . SVG Version: 6.00 Build 0)  -->
<svg version="1.1" id="Capa_1" xmlns="http://www.w3.org/2000/svg" xmlns:xlink="http://www.w3.org/1999/xlink" x="0px" y="0px"
	 viewBox="0 0 512 512" style="enable-background:new 0 0 512 512;" xml:space="preserve">
<path style="fill:#ADACB2;" d="M255.938,282.655c-8.287,0-15.005-6.718-15.005-15.005V212.5c0-8.287,6.718-15.005,15.005-15.005
	c8.287,0,15.005,6.718,15.005,15.005v55.15C270.943,275.937,264.226,282.655,255.938,282.655z"/>
<path style="fill:#EEEFFF;" d="M385.088,382.917c0,71.184-57.909,129.083-129.083,129.083h-0.07
	c-71.154-0.04-129.023-57.919-129.023-129.083c0-71.154,57.869-129.043,129.023-129.083h0.07
	C327.179,253.834,385.088,311.744,385.088,382.917z"/>
<path style="fill:#CFCFED;" d="M385.088,382.917c0,71.184-57.909,129.083-129.083,129.083h-0.07V253.834h0.07
	C327.179,253.834,385.088,311.744,385.088,382.917z"/>
<path style="fill:#00EED0;" d="M327.769,20.017v187.472c0,11.034-8.973,20.017-20.007,20.017H204.248
	c-11.034,0-20.017-8.983-20.017-20.017V20.017C184.231,8.983,193.214,0,204.248,0h103.514C318.796,0,327.769,8.983,327.769,20.017z"
	/>
<g>
	<rect x="184.231" y="48.106" style="fill:#00A5FF;" width="143.538" height="30.01"/>
	<rect x="184.231" y="97.672" style="fill:#00A5FF;" width="143.538" height="30.01"/>
	<rect x="184.231" y="147.229" style="fill:#00A5FF;" width="143.538" height="30.01"/>
</g>
<path style="fill:#ADACB2;" d="M288.151,421.465h-45.055v-1.551c0-2.761,1.851-5.792,5.542-9.073
	c2.171-1.931,4.602-3.881,7.292-5.862c1.891-1.4,3.911-2.811,6.062-4.241c5.202-3.451,10.383-7.252,15.525-11.404
	c5.152-4.141,9.563-9.263,13.224-15.365c3.661-6.102,5.492-12.614,5.492-19.516c0-10.604-4.001-19.026-12.014-25.268
	c-8.003-6.252-17.326-9.373-27.969-9.373c-0.11,0-0.21,0-0.32,0.01c-10.183,0.05-19.066,3.041-26.639,8.963
	c-7.653,5.982-11.474,13.925-11.474,23.828c0,9.233,3.931,13.845,11.804,13.845c4.151,0,7.502-1.01,10.023-3.021
	c2.531-2.001,3.801-4.371,3.801-7.092c0-4.602,1.21-7.973,3.631-10.103c2.311-2.041,5.272-3.091,8.853-3.181
	c0.17-0.01,0.33-0.01,0.5-0.01c4.381,0,7.673,1.24,9.863,3.711c2.191,2.481,3.291,5.322,3.291,8.553
	c0,4.031-1.881,8.173-5.632,12.434c-2.351,2.671-5.022,5.262-8.023,7.803c-1.791,1.51-3.701,3.001-5.732,4.461l-15.685,11.744
	c-5.182,3.901-9.603,8.313-13.264,13.234c-3.651,4.932-5.482,9.863-5.482,14.785v16.676c0,2.291,1.28,4.241,3.841,5.842
	c2.561,1.611,5.152,2.411,7.773,2.411h60.82c2.161,0,4.041-1.2,5.642-3.591c1.591-2.391,2.391-5.122,2.391-8.203
	c0-3.071-0.8-5.742-2.411-8.023C292.222,422.605,290.331,421.465,288.151,421.465z"/>
<g>
	<path style="fill:#8A8891;" d="M293.823,424.886c1.611,2.281,2.411,4.952,2.411,8.023c0,3.081-0.8,5.812-2.391,8.203
		c-1.601,2.391-3.481,3.591-5.642,3.591H255.93v-23.238h32.221C290.331,421.465,292.222,422.605,293.823,424.886z"/>
	<path style="fill:#8A8891;" d="M296.233,354.453c0,6.902-1.831,13.414-5.492,19.516c-3.661,6.102-8.073,11.224-13.224,15.365
		c-5.142,4.151-10.323,7.953-15.525,11.404c-2.151,1.43-4.171,2.841-6.062,4.241v-29.43c3.001-2.541,5.672-5.132,8.023-7.803
		c3.751-4.261,5.632-8.403,5.632-12.434c0-3.231-1.1-6.072-3.291-8.553c-2.191-2.471-5.482-3.711-9.863-3.711
		c-0.17,0-0.33,0-0.5,0.01v-23.238c0.11-0.01,0.21-0.01,0.32-0.01c10.644,0,19.967,3.121,27.969,9.373
		C292.232,335.426,296.233,343.849,296.233,354.453z"/>
</g>
<g>
	<rect x="255.995" y="127.682" style="fill:#00B6BE;" width="71.774" height="19.546"/>
	<rect x="255.995" y="78.116" style="fill:#00B6BE;" width="71.774" height="19.556"/>
	<path style="fill:#00B6BE;" d="M327.769,207.489v-30.25H256v50.267h51.762C318.796,227.506,327.769,218.523,327.769,207.489z"/>
	<path style="fill:#00B6BE;" d="M327.769,48.106V20.017C327.769,8.983,318.796,0,307.762,0H256v48.106H327.769z"/>
</g>
<g>
	<rect x="255.995" y="48.106" style="fill:#006DF3;" width="71.774" height="30.01"/>
	<rect x="255.995" y="97.672" style="fill:#006DF3;" width="71.774" height="30.01"/>
	<rect x="255.995" y="147.229" style="fill:#006DF3;" width="71.774" height="30.01"/>
</g>
<g>
</g>
<g>
</g>
<g>
</g>
<g>
</g>
<g>
</g>
<g>
</g>
<g>
</g>
<g>
</g>
<g>
</g>
<g>
</g>
<g>
</g>
<g>
</g>
<g>
</g>
<g>
</g>
<g>
</g>
</svg>
